<?xml version="1.0" standalone="no"?>
<!DOCTYPE svg PUBLIC "-//W3C//DTD SVG 20010904//EN"
 "http://www.w3.org/TR/2001/REC-SVG-20010904/DTD/svg10.dtd">
<svg version="1.0" xmlns="http://www.w3.org/2000/svg"
 width="500.000000pt" height="500.000000pt" viewBox="0 0 500.000000 500.000000"
 preserveAspectRatio="xMidYMid meet">

<g transform="translate(0.000000,500.000000) scale(0.100000,-0.100000)"
fill="#000000" stroke="none">
<path d="M2240 4879 c-273 -35 -519 -105 -755 -214 -84 -38 -322 -176 -352
-204 -10 -9 -39 -32 -65 -50 -27 -19 -48 -36 -48 -38 0 -2 667 -3 1483 -3
l1482 1 -35 30 c-65 55 -234 163 -355 226 -256 132 -502 208 -807 248 -122 16
-437 18 -548 4z"/>
<path d="M776 4150 c-59 -61 -136 -150 -171 -198 l-65 -87 53 -2 c28 -2 910
-4 1960 -5 1266 -2 1907 0 1907 7 0 20 -136 190 -233 291 l-99 104 -1623 0
-1622 0 -107 -110z"/>
<path d="M453 3728 c-21 -27 -123 -227 -153 -301 -18 -43 -29 -82 -24 -86 5
-4 111 -5 236 -3 l226 4 -13 39 c-25 69 -92 206 -125 254 -63 92 -120 127
-147 93z"/>
<path d="M1240 3738 c0 -2 35 -39 78 -84 46 -48 97 -116 127 -168 93 -161 83
-151 145 -150 30 0 166 1 303 2 l247 2 -2 198 -3 197 -447 3 c-247 1 -448 1
-448 0z"/>
<path d="M2850 3540 l0 -200 303 0 302 0 84 188 c46 103 86 193 88 200 4 9
-77 12 -386 12 l-391 0 0 -200z"/>
<path d="M4490 3698 c-10 -24 -50 -113 -88 -198 -56 -123 -67 -156 -55 -160
26 -10 381 -11 387 -1 8 13 -53 154 -123 286 -69 130 -90 143 -121 73z"/>
<path d="M222 3203 c-24 -46 -92 -366 -80 -378 3 -3 178 -4 390 -3 l385 3 -33
90 c-17 50 -47 137 -66 195 l-33 105 -277 3 c-256 2 -278 1 -286 -15z"/>
<path d="M1593 3203 c3 -10 21 -65 41 -123 19 -58 46 -139 59 -180 l24 -75
212 -3 211 -2 -2 197 -3 198 -274 3 c-257 2 -273 1 -268 -15z"/>
<path d="M2850 3020 l0 -200 185 0 c183 0 186 0 194 23 5 12 22 51 39 87 95
206 122 269 122 281 0 5 -113 9 -270 9 l-270 0 0 -200z"/>
<path d="M4261 3188 c-8 -18 -31 -71 -53 -116 -21 -46 -38 -85 -38 -87 0 -2
-16 -37 -35 -78 -19 -41 -35 -77 -35 -81 0 -3 173 -6 385 -6 330 0 385 2 385
14 0 25 -48 247 -68 316 l-19 65 -254 3 -254 2 -14 -32z"/>
<path d="M116 2600 c-4 -55 -4 -145 0 -200 l7 -100 575 0 576 0 -43 36 c-62
53 -147 164 -206 268 l-51 91 -426 3 -425 2 -7 -100z"/>
<path d="M1777 2658 c44 -112 124 -258 168 -305 l47 -53 74 0 74 0 0 200 0
200 -190 0 -190 0 17 -42z"/>
<path d="M2850 2500 l0 -200 68 0 68 0 21 48 c12 26 51 113 87 193 36 81 66
150 66 153 0 3 -70 6 -155 6 l-155 0 0 -200z"/>
<path d="M4031 2677 c-10 -25 -93 -212 -140 -312 l-28 -60 501 -3 c276 -1 507
0 514 3 9 3 12 49 12 184 0 99 -3 186 -6 195 -5 14 -52 16 -425 16 l-419 0 -9
-23z"/>
<path d="M144 2128 c10 -75 55 -277 72 -316 l13 -32 953 2 953 3 3 198 2 197
-1001 0 -1002 0 7 -52z"/>
<path d="M2850 1980 l0 -200 967 2 967 3 18 60 c18 62 68 295 68 321 0 12
-140 14 -1010 14 l-1010 0 0 -200z"/>
<path d="M270 1655 c0 -23 84 -210 138 -305 l47 -85 840 0 840 0 0 200 0 200
-932 3 c-820 2 -933 0 -933 -13z"/>
<path d="M2857 1663 c-4 -3 -7 -96 -7 -205 l0 -198 850 0 849 0 24 43 c69 119
167 331 167 357 0 11 -1872 14 -1883 3z"/>
<path d="M540 1143 c1 -29 196 -262 292 -350 l56 -51 624 1 623 2 0 200 0 200
-797 3 c-439 1 -798 -1 -798 -5z"/>
<path d="M2854 1137 c-2 -7 -3 -98 -2 -202 l3 -190 635 -3 635 -2 100 103
c102 104 235 271 235 294 0 19 -1598 19 -1606 0z"/>
<path d="M1020 627 c0 -2 21 -19 48 -37 26 -19 49 -37 52 -41 5 -7 141 -93
209 -131 262 -151 584 -256 896 -293 600 -70 1195 87 1690 447 l79 58 -1487 0
c-818 0 -1487 -1 -1487 -3z"/>
</g>
</svg>
