<?xml version="1.0" standalone="no"?>
<!DOCTYPE svg PUBLIC "-//W3C//DTD SVG 20010904//EN"
 "http://www.w3.org/TR/2001/REC-SVG-20010904/DTD/svg10.dtd">
<svg version="1.0" xmlns="http://www.w3.org/2000/svg"
 width="500.000000pt" height="500.000000pt" viewBox="0 0 500.000000 500.000000"
 preserveAspectRatio="xMidYMid meet">

<g transform="translate(0.000000,500.000000) scale(0.100000,-0.100000)"
fill="#000000" stroke="none">
<path d="M2320 4994 c-481 -41 -934 -208 -1295 -477 -287 -214 -472 -417 -677
-743 -97 -153 -223 -462 -272 -664 -57 -238 -70 -350 -70 -610 0 -288 23 -448
103 -732 41 -146 162 -421 239 -542 140 -223 227 -333 392 -496 169 -168 322
-287 505 -392 441 -252 922 -364 1417 -330 360 25 655 105 970 263 105 53 129
67 263 155 202 133 434 351 591 554 455 589 619 1372 443 2110 -98 414 -318
818 -614 1128 -396 415 -891 671 -1465 758 -93 14 -441 26 -530 18z m488 -79
c281 -37 523 -110 772 -234 502 -248 925 -688 1144 -1191 16 -36 34 -78 41
-95 61 -138 122 -381 151 -595 19 -141 18 -463 -1 -610 -80 -601 -373 -1147
-820 -1528 -388 -331 -777 -505 -1302 -581 -93 -14 -493 -14 -586 0 -576 84
-1039 311 -1427 699 -389 389 -621 864 -695 1422 -18 134 -20 458 -4 573 98
710 420 1266 977 1685 316 238 699 392 1130 455 125 18 482 18 620 0z"/>
<path d="M2870 4766 c0 -6 -36 -185 -55 -270 -16 -73 -12 -85 27 -86 12 0 20
17 31 66 9 36 17 67 19 69 2 2 26 -1 53 -6 66 -13 110 -4 134 27 42 54 35 126
-16 159 -33 22 -193 56 -193 41z m142 -78 c41 -15 45 -73 6 -97 -16 -10 -30
-10 -70 -1 -44 11 -49 15 -43 34 3 11 8 36 12 54 5 31 8 33 37 27 17 -3 43
-11 58 -17z"/>
<path d="M2510 4670 c0 -39 -1 -40 -35 -40 -33 0 -35 2 -35 35 0 24 -5 35 -15
35 -12 0 -15 -16 -15 -85 0 -69 3 -85 15 -85 10 0 15 10 15 34 0 30 3 34 30
38 37 6 40 3 40 -39 0 -18 5 -33 10 -33 6 0 10 37 10 90 0 53 -4 90 -10 90 -5
0 -10 -18 -10 -40z"/>
<path d="M2257 4693 c-14 -13 -6 -23 17 -23 22 0 24 -5 31 -75 5 -54 11 -75
21 -75 11 0 13 14 7 76 -6 71 -5 75 15 81 12 3 22 9 22 14 0 10 -103 12 -113
2z"/>
<path d="M2578 4618 c-4 -55 -1 -85 6 -90 6 -4 33 -8 59 -8 62 0 60 24 -2 28
-37 3 -42 6 -39 25 2 15 11 23 28 25 39 6 44 19 11 25 -25 5 -31 12 -31 32 0
25 3 26 41 23 27 -2 44 1 46 10 3 9 -12 12 -55 12 l-59 0 -5 -82z"/>
<path d="M3206 4682 c-11 -18 -125 -326 -122 -330 2 -1 16 -4 31 -5 25 -2 30
3 52 63 14 36 26 66 27 67 2 2 29 -8 62 -21 64 -27 64 -25 33 -103 -24 -60
-20 -83 13 -83 20 0 28 13 56 88 19 48 47 121 63 162 28 70 28 76 12 87 -30
23 -41 14 -68 -56 l-26 -69 -62 23 c-34 12 -61 27 -60 31 1 5 12 37 25 71 12
34 20 64 18 66 -12 11 -49 17 -54 9z"/>
<path d="M2097 4668 c-28 -7 -37 -14 -33 -25 4 -8 11 -46 18 -84 8 -49 15 -69
26 -69 10 0 13 9 10 36 -4 32 -1 37 24 46 36 13 25 32 -13 24 -26 -5 -29 -3
-29 19 0 20 7 26 40 35 22 6 40 15 40 20 0 12 -33 11 -83 -2z"/>
<path d="M1931 4619 c-19 -18 -22 -28 -17 -61 11 -69 32 -98 70 -98 20 0 40 8
51 20 16 18 17 26 6 72 -19 86 -62 112 -110 67z m75 -45 c18 -44 15 -73 -9
-88 -22 -14 -44 11 -53 61 -8 43 0 63 26 63 15 0 26 -11 36 -36z"/>
<path d="M1554 4596 c-45 -20 -74 -62 -74 -108 0 -51 47 -161 86 -204 28 -31
37 -34 87 -34 51 0 60 3 97 38 34 33 40 45 40 80 0 45 -10 57 -40 47 -15 -5
-20 -15 -20 -40 0 -60 -80 -99 -116 -56 -25 29 -73 143 -74 173 0 31 21 55 55
64 25 6 65 -10 65 -26 0 -14 33 -12 53 3 13 10 14 15 4 27 -37 49 -101 63
-163 36z"/>
<path d="M3451 4398 c-46 -88 -81 -161 -79 -162 10 -9 50 -27 52 -24 12 14
156 304 156 313 0 7 -10 17 -23 22 -23 11 -27 5 -106 -149z"/>
<path d="M1325 4468 c-11 -6 -21 -12 -23 -13 -1 -1 39 -70 89 -154 91 -152
108 -168 132 -130 7 12 -11 50 -78 162 -49 81 -91 147 -94 147 -3 0 -15 -6
-26 -12z"/>
<path d="M3573 4336 c-51 -78 -93 -147 -93 -152 0 -5 44 -37 96 -72 90 -59 97
-62 110 -45 7 10 14 21 14 24 0 3 -32 27 -71 53 -45 30 -69 52 -65 61 2 7 39
66 81 130 71 109 75 118 58 131 -10 7 -22 13 -28 14 -5 0 -52 -65 -102 -144z"/>
<path d="M2310 4334 c-14 -2 -56 -9 -95 -15 -254 -40 -499 -137 -723 -288
-274 -184 -482 -423 -623 -715 -130 -269 -183 -504 -182 -806 1 -302 56 -537
188 -799 261 -521 740 -879 1320 -987 116 -21 350 -29 485 -15 479 48 914 274
1215 633 304 362 450 781 432 1238 -11 273 -67 497 -182 735 -248 512 -705
868 -1275 992 -97 21 -147 25 -325 28 -115 2 -221 2 -235 -1z m362 -64 c952
-93 1651 -921 1586 -1882 -52 -770 -626 -1424 -1393 -1586 -255 -54 -549 -47
-802 19 -684 179 -1199 758 -1298 1458 -57 403 47 867 268 1196 108 160 262
328 397 432 358 276 801 406 1242 363z"/>
<path d="M2443 4175 c3 -11 11 -39 18 -61 11 -41 11 -43 -30 -100 -22 -31 -41
-64 -41 -73 0 -14 -2 -14 -10 -1 -8 12 -10 12 -16 -3 -4 -13 -10 -15 -19 -7
-7 5 -30 11 -53 12 -32 1 -48 -5 -75 -28 -19 -16 -43 -36 -54 -44 -39 -30 -63
-77 -63 -121 l0 -43 -37 36 c-49 46 -67 55 -142 67 -130 21 -207 -10 -351
-143 -25 -22 -81 -72 -125 -111 -44 -38 -91 -80 -105 -93 -46 -41 -279 -207
-342 -242 -55 -31 -63 -40 -63 -65 0 -40 38 -54 102 -37 41 11 48 11 56 -3 6
-12 21 -16 53 -14 24 2 49 -2 56 -9 14 -14 76 -16 97 -3 8 5 24 3 41 -6 24
-12 34 -12 70 1 37 13 45 13 57 0 18 -18 35 -18 79 1 27 11 39 12 54 3 14 -9
25 -9 44 0 l26 12 0 -702 0 -701 25 -44 c16 -26 41 -51 65 -63 38 -19 59 -20
745 -20 l705 0 40 25 c22 14 49 43 60 65 19 38 20 57 20 740 0 431 4 700 9
700 6 0 13 -4 16 -10 8 -13 52 -13 60 -1 3 6 19 4 40 -5 44 -18 60 -18 79 1
12 12 20 13 36 5 27 -14 86 -16 102 -2 9 7 19 8 28 2 22 -14 98 -12 102 2 3 8
21 11 50 9 34 -2 49 2 55 14 8 13 16 14 59 4 64 -14 104 -1 104 36 0 19 -9 31
-31 43 -83 45 -338 225 -390 274 -8 7 -50 45 -94 83 -44 39 -82 72 -85 75 -29
33 -165 141 -191 154 -53 25 -120 34 -192 25 -79 -10 -113 -26 -156 -74 l-31
-36 0 35 c0 58 -28 112 -82 158 -28 24 -60 48 -72 54 -27 15 -86 6 -93 -14 -9
-21 51 -72 83 -72 16 0 39 -13 61 -35 35 -35 36 -37 30 -97 -4 -51 -11 -66
-39 -95 -30 -32 -158 -123 -172 -123 -3 0 -6 17 -6 38 0 26 7 45 20 57 25 23
26 61 1 77 -12 7 -17 16 -12 23 5 5 14 27 21 48 11 34 9 43 -13 90 -16 33 -27
77 -31 119 -3 37 -13 82 -22 100 -15 30 -18 31 -24 13 -7 -18 -8 -18 -15 6 -3
15 -27 46 -52 70 -31 31 -44 38 -40 24z m69 -86 c9 -19 17 -55 18 -81 0 -51
14 -64 24 -23 12 46 26 26 26 -37 1 -49 6 -72 25 -103 29 -47 31 -63 8 -110
l-17 -35 -91 0 c-82 0 -94 2 -113 23 -39 41 -52 100 -32 151 9 25 10 25 39 8
28 -16 30 -16 50 2 21 19 21 19 21 -6 0 -14 6 -40 13 -57 l13 -31 14 48 c11
39 14 43 17 21 2 -14 15 -47 28 -75 23 -47 24 -47 25 -18 0 16 -7 39 -15 50
-8 10 -15 33 -15 49 -1 17 -9 46 -20 65 l-19 35 -1 -35 c-1 -19 -5 -44 -9 -55
-7 -16 -10 -11 -16 25 -5 25 -8 53 -6 62 1 10 -2 25 -7 34 -7 13 -11 7 -16
-25 -9 -57 -27 -95 -38 -79 -16 26 -7 64 27 106 42 54 48 72 35 107 -15 40 11
28 32 -16z m280 -201 c69 -61 88 -92 88 -146 0 -101 -69 -174 -255 -270 -109
-57 -150 -92 -171 -150 -21 -57 -31 -69 -44 -56 -15 15 31 104 73 141 20 17
76 52 124 77 108 57 172 103 209 152 25 33 29 46 29 106 0 66 -1 70 -34 99
-19 16 -46 32 -60 35 -33 7 -74 29 -79 42 -3 10 16 18 46 21 8 0 41 -23 74
-51z m-478 10 c-10 -10 -37 -24 -61 -29 -61 -16 -113 -75 -113 -129 0 -23 6
-55 14 -73 17 -42 102 -118 182 -163 35 -20 64 -40 64 -46 0 -14 -18 -6 -102
43 -81 48 -143 100 -164 140 -18 36 -18 132 1 169 8 16 29 39 47 51 18 13 40
30 48 39 20 22 37 27 72 22 28 -4 28 -5 12 -24z m26 -38 c-10 -53 1 -106 30
-143 l20 -26 -20 -6 c-27 -8 -27 -56 0 -80 14 -13 20 -31 20 -62 0 -23 -3 -43
-6 -43 -15 0 -123 72 -159 107 -48 45 -65 79 -65 132 0 49 46 97 108 113 24 6
51 21 60 33 9 13 18 22 19 22 1 -1 -3 -22 -7 -47z m-395 -91 c104 -28 148
-103 164 -277 11 -120 17 -138 64 -192 l31 -35 -267 -3 -267 -2 0 -38 c0 -35
-4 -40 -52 -69 -66 -40 -107 -55 -126 -48 -17 6 151 170 203 197 38 20 75 67
75 94 0 14 -8 9 -31 -19 -27 -33 -75 -67 -95 -67 -3 0 12 18 34 41 39 38 60
75 49 85 -2 3 -19 -13 -37 -36 -34 -42 -54 -57 -101 -70 -38 -11 -36 -6 6 20
37 23 101 107 90 118 -3 3 -24 -15 -46 -41 -23 -26 -54 -54 -70 -62 -32 -17
-79 -20 -79 -5 0 6 5 10 11 10 21 0 69 42 101 88 l32 47 -46 -41 c-53 -49 -84
-69 -118 -79 -22 -6 -20 -2 15 32 42 39 116 127 130 153 4 8 -28 -19 -71 -61
-44 -42 -99 -90 -123 -107 l-44 -31 27 -11 c15 -5 32 -10 39 -10 18 0 -43 -58
-78 -75 -34 -15 -85 -21 -85 -8 0 4 12 20 28 36 19 20 -1 11 -64 -31 -96 -63
-181 -110 -225 -122 -28 -8 -65 7 -41 17 25 10 196 125 290 196 53 40 164 132
247 206 82 73 167 145 187 158 75 51 159 65 243 42z m1321 -23 c28 -15 113
-83 189 -152 77 -69 192 -164 255 -213 119 -91 296 -211 311 -211 5 0 9 -4 9
-10 0 -20 -62 -9 -122 21 -33 17 -99 56 -147 88 -112 74 -124 80 -78 42 44
-38 47 -51 11 -51 -36 0 -86 25 -119 60 -23 25 -25 30 -11 30 9 0 26 5 38 11
18 10 17 13 -24 41 -23 17 -78 65 -122 107 -43 42 -75 69 -71 61 14 -25 87
-113 122 -146 18 -18 33 -34 33 -37 0 -17 -64 20 -116 66 -32 29 -54 45 -49
37 22 -39 69 -91 96 -107 34 -20 37 -33 9 -33 -35 0 -76 27 -119 77 -22 26
-43 44 -46 41 -11 -11 45 -85 86 -114 22 -15 37 -29 35 -31 -12 -12 -96 39
-126 77 -19 24 -36 38 -38 31 -5 -15 46 -89 71 -102 10 -6 16 -13 14 -16 -10
-9 -66 28 -96 64 -28 33 -31 35 -31 15 0 -24 71 -102 94 -102 7 0 34 -22 59
-49 25 -26 66 -65 91 -86 76 -62 52 -75 -49 -26 -84 42 -95 52 -95 94 l0 37
-267 2 -267 3 31 35 c47 54 53 72 64 192 12 125 34 190 78 233 64 61 206 71
297 21z m-643 -85 c5 0 7 -8 5 -17 -2 -13 -22 -15 -128 -15 -106 0 -126 2
-128 15 -3 12 5 16 32 16 20 0 36 -4 36 -10 0 -16 117 -13 123 4 5 11 21 13
60 7z m-155 -141 c2 -53 -2 -93 -9 -107 -23 -44 -36 -26 -42 60 -11 134 -11
134 21 133 l27 -1 3 -85z m106 84 c24 -9 21 -89 -4 -114 -11 -11 -24 -20 -30
-20 -15 0 -13 127 3 133 6 3 13 6 14 6 1 1 8 -2 17 -5z m276 -164 c-10 -57
-18 -76 -58 -123 l-47 -57 -63 0 c-51 0 -64 3 -68 18 -3 9 -10 25 -15 35 -6
11 -7 42 -3 73 l6 54 87 45 c48 25 105 63 126 85 l40 41 3 -52 c2 -29 -2 -83
-8 -119z m-538 29 c100 -50 114 -78 84 -164 l-14 -40 -62 -3 c-63 -3 -63 -3
-101 40 -56 63 -70 98 -76 200 l-6 92 58 -48 c33 -26 85 -61 117 -77z m261
-116 c-6 -84 -8 -93 -28 -93 -24 0 -22 135 3 149 28 17 30 14 25 -56z m-1056
-31 c19 -12 -65 -88 -104 -95 -47 -9 -42 10 15 60 47 42 66 50 89 35z m2054
-34 c58 -51 63 -70 17 -61 -40 7 -124 83 -105 95 22 14 38 8 88 -34z m-1947
15 c3 -4 -13 -26 -36 -50 -30 -30 -50 -43 -70 -43 -16 0 -28 5 -28 13 0 20 62
75 90 80 14 2 28 5 31 6 3 0 9 -2 13 -6z m1797 -4 c38 -13 89 -56 89 -76 0 -8
-12 -13 -28 -13 -20 0 -40 13 -70 43 -23 24 -39 46 -36 50 9 9 5 9 45 -4z
m-951 -20 c0 -11 -4 -18 -10 -14 -5 3 -7 12 -3 20 7 21 13 19 13 -6z m-1195
-39 c3 -5 16 -10 28 -10 19 0 17 -3 -13 -30 -65 -55 -171 -91 -170 -57 1 13
118 105 137 106 6 1 15 -3 18 -9z m2495 -4 c6 -8 34 -29 61 -46 53 -35 64 -60
25 -60 -32 0 -72 18 -129 59 l-48 35 33 12 c45 16 44 16 58 0z m-2389 -36 c10
0 19 -3 19 -7 0 -13 -94 -73 -130 -83 -59 -17 -53 5 17 57 37 28 70 47 71 42
2 -5 12 -9 23 -9z m1089 -140 l0 -159 -37 -10 c-21 -6 -45 -11 -54 -11 -31 0
-156 -70 -197 -111 -79 -76 -142 -197 -142 -269 l0 -30 -165 0 -165 0 0 375 0
375 380 0 380 0 0 -160z m820 -215 l0 -375 -162 2 -163 3 -3 25 c-5 45 -44
144 -73 187 -71 103 -176 173 -293 197 l-61 13 -3 161 -2 162 380 0 380 0 0
-375z m438 311 c31 -22 50 -42 44 -48 -12 -12 -85 16 -139 54 -36 26 -41 34
-27 36 11 2 23 8 28 12 5 5 16 4 25 -3 9 -7 40 -29 69 -51z m-2245 30 c17 -13
16 -16 -16 -40 -46 -35 -117 -57 -117 -36 0 9 99 90 110 90 3 -1 13 -7 23 -14z
m2114 -26 c48 -37 66 -60 45 -60 -24 0 -79 23 -109 46 -32 24 -33 27 -16 40
24 18 19 19 80 -26z m-1941 -36 c-11 -8 -27 -14 -35 -14 -10 0 -4 8 14 20 33
21 51 17 21 -6z m1725 -12 c-14 -5 -51 17 -51 29 0 6 14 2 30 -8 17 -10 26
-19 21 -21z m-761 -293 c239 -78 358 -347 249 -563 -136 -271 -479 -316 -679
-89 -132 150 -130 385 3 530 117 127 275 172 427 122z m-578 -468 c6 -57 62
-178 100 -221 67 -74 178 -142 253 -154 81 -14 75 2 75 -192 l0 -174 -336 0
c-324 0 -337 1 -365 21 -58 41 -59 45 -59 429 l0 350 163 -2 162 -3 7 -54z
m1248 -291 c0 -384 -1 -388 -59 -429 -28 -20 -41 -21 -365 -21 l-336 0 0 174
c0 193 -6 177 70 191 81 15 175 68 240 137 46 49 107 162 115 216 15 91 -5 82
175 82 l160 0 0 -350z"/>
<path d="M2410 3812 c0 -36 6 -56 21 -73 19 -23 20 -23 10 -2 -6 12 -11 42
-11 67 0 25 -4 48 -10 51 -6 4 -10 -13 -10 -43z"/>
<path d="M2265 3910 c-3 -5 -1 -10 4 -10 6 0 11 5 11 10 0 6 -2 10 -4 10 -3 0
-8 -4 -11 -10z"/>
<path d="M1769 3705 c-14 -8 -34 -26 -43 -40 -20 -30 -13 -32 16 -5 27 25 75
34 111 21 36 -14 62 -59 77 -134 18 -97 40 -164 60 -189 18 -23 18 -22 5 32
-7 30 -18 93 -25 140 -15 101 -39 154 -80 175 -36 19 -87 19 -121 0z"/>
<path d="M3108 3704 c-39 -21 -63 -75 -78 -174 -7 -47 -19 -110 -26 -140 l-13
-55 19 23 c21 25 32 59 60 185 10 42 25 89 34 103 32 48 109 56 154 14 27 -26
36 -25 22 1 -28 52 -116 74 -172 43z"/>
<path d="M1823 3159 c-23 -7 -33 -16 -33 -30 0 -25 22 -34 50 -19 31 17 48 7
43 -24 -5 -24 -10 -26 -54 -26 -42 0 -49 -3 -49 -20 0 -16 8 -19 62 -22 l61
-3 11 -40 c10 -35 16 -40 43 -43 27 -3 33 -8 38 -35 9 -42 22 -57 49 -57 12 0
33 -14 48 -32 27 -34 52 -32 30 2 -17 27 -15 32 7 20 30 -16 51 -12 51 9 0 23
-50 46 -80 36 -29 -9 -60 20 -60 55 0 30 -23 56 -40 45 -24 -15 -42 17 -35 65
8 55 -7 97 -37 109 -44 16 -73 19 -105 10z m62 -18 c-6 -5 -28 -13 -50 -17
-36 -6 -39 -6 -26 9 8 10 28 17 49 17 22 0 32 -4 27 -9z m56 -18 c9 -11 14
-43 14 -100 0 -107 -19 -105 -23 3 -2 43 -7 83 -12 88 -6 6 -10 14 -10 18 0
13 17 9 31 -9z m-24 -70 c-3 -10 -5 -2 -5 17 0 19 2 27 5 18 2 -10 2 -26 0
-35z m113 -146 c4 -31 2 -46 -5 -44 -5 2 -12 25 -15 50 -4 31 -2 46 5 44 5 -2
12 -25 15 -50z m131 -64 c12 -14 12 -16 0 -8 -8 4 -28 12 -45 16 l-31 7 31 1
c19 1 37 -6 45 -16z"/>
<path d="M2723 3065 l-55 -55 31 0 c30 0 30 0 33 -62 l3 -63 207 -3 207 -2 3
62 c3 60 4 63 30 66 27 3 27 4 -27 58 l-55 54 -161 0 -162 0 -54 -55z m412
-110 l0 -50 -192 -3 -193 -2 0 55 0 55 193 -2 192 -3 0 -50z"/>
<path d="M2790 2980 c0 -15 7 -20 25 -20 18 0 25 5 25 20 0 15 -7 20 -25 20
-18 0 -25 -5 -25 -20z"/>
<path d="M2855 2990 c-10 -16 4 -30 31 -30 17 0 24 5 24 20 0 15 -7 20 -24 20
-14 0 -28 -4 -31 -10z"/>
<path d="M2990 2980 c0 -15 7 -20 25 -20 18 0 25 5 25 20 0 15 -7 20 -25 20
-18 0 -25 -5 -25 -20z"/>
<path d="M3060 2980 c0 -15 7 -20 25 -20 18 0 25 5 25 20 0 15 -7 20 -25 20
-18 0 -25 -5 -25 -20z"/>
<path d="M2931 2961 c-9 -6 -4 -10 18 -13 33 -5 42 6 15 16 -19 7 -16 8 -33
-3z"/>
<path d="M2790 2925 c0 -9 9 -15 25 -15 16 0 25 6 25 15 0 9 -9 15 -25 15 -16
0 -25 -6 -25 -15z"/>
<path d="M2852 2928 c7 -20 58 -23 58 -4 0 11 -10 16 -31 16 -20 0 -29 -4 -27
-12z"/>
<path d="M2990 2925 c0 -9 9 -15 25 -15 16 0 25 6 25 15 0 9 -9 15 -25 15 -16
0 -25 -6 -25 -15z"/>
<path d="M3060 2925 c0 -9 9 -15 25 -15 16 0 25 6 25 15 0 9 -9 15 -25 15 -16
0 -25 -6 -25 -15z"/>
<path d="M2431 2683 c-12 -8 -21 -23 -21 -33 0 -10 -6 -20 -12 -22 -10 -4 -10
-10 0 -29 10 -20 12 -21 10 -4 -2 26 16 67 36 84 17 14 46 8 46 -10 0 -6 -6
-9 -14 -6 -15 6 -53 -29 -43 -39 3 -3 10 4 17 15 17 34 40 3 40 -54 0 -38 -3
-46 -17 -43 -9 2 -21 18 -25 37 -5 18 -12 31 -15 28 -3 -3 -1 -20 5 -36 12
-33 0 -42 -17 -13 -9 15 -10 14 -11 -6 0 -18 -5 -23 -22 -20 -20 3 -23 8 -20
41 5 52 -14 93 -48 107 -55 23 -110 -26 -110 -98 0 -26 9 -43 35 -69 19 -19
39 -32 44 -28 6 3 15 -12 21 -34 13 -51 47 -77 110 -86 48 -7 50 -8 51 -38 2
-67 6 -103 14 -124 6 -20 4 -23 -19 -23 -37 0 -78 23 -111 62 -24 28 -25 33
-10 38 14 5 12 8 -10 20 -22 12 -28 12 -42 -2 -17 -18 -16 -21 47 -88 25 -26
55 -43 102 -59 64 -21 69 -21 114 -6 25 8 56 20 68 26 31 17 86 71 86 86 0 7
7 13 15 13 13 0 13 3 3 20 -15 24 -28 25 -54 4 -10 -8 -13 -13 -6 -9 15 8 16
-9 2 -35 -13 -25 -90 -70 -119 -70 -21 0 -22 3 -15 46 5 34 4 45 -5 40 -12 -8
-4 21 12 41 5 7 7 22 4 33 -5 18 0 20 39 20 32 0 49 -6 64 -22 15 -16 20 -18
20 -7 0 30 -44 59 -89 59 -28 0 -41 4 -40 13 4 24 -13 67 -25 60 -6 -3 -2 3 8
15 21 25 36 31 16 7 -7 -8 -8 -15 -2 -15 5 0 15 7 22 15 7 8 24 15 37 15 31 0
93 -29 93 -43 0 -6 3 -7 6 -4 4 4 -5 22 -20 42 -18 24 -35 35 -52 35 -22 0
-24 3 -18 22 4 12 7 40 7 62 0 32 -6 45 -27 61 -33 24 -125 30 -155 8z m148
-12 c20 -15 24 -27 23 -66 0 -26 -5 -52 -11 -58 -17 -17 -21 -4 -11 32 11 40
-12 96 -36 87 -8 -3 -14 1 -14 9 0 20 20 18 49 -4z m-261 -33 c7 -7 12 -28 12
-48 0 -56 -47 -84 -70 -41 -30 57 17 130 58 89z m248 0 c17 -28 -2 -98 -27
-98 -10 0 -12 93 -2 103 10 10 21 8 29 -5z m-98 -161 c19 -20 20 -26 9 -51
-11 -25 -15 -27 -57 -23 -49 6 -80 33 -80 73 0 22 4 24 53 24 43 0 58 -5 75
-23z m22 13 c0 -5 -2 -10 -4 -10 -3 0 -8 5 -11 10 -3 6 -1 10 4 10 6 0 11 -4
11 -10z m25 -200 c-10 -11 -20 -18 -23 -15 -3 3 3 14 13 25 10 11 20 18 23 15
3 -3 -3 -14 -13 -25z"/>
<path d="M2043 2118 c-25 -12 -52 -63 -60 -116 -4 -20 -15 -43 -25 -50 -10 -7
-18 -19 -18 -26 0 -17 -33 -46 -52 -46 -9 0 -21 -14 -27 -31 -12 -35 -30 -34
-48 2 -15 29 -17 89 -3 89 6 0 10 14 10 32 l0 31 -25 -23 c-32 -30 -34 -93 -5
-152 11 -23 20 -47 20 -53 0 -10 127 -65 152 -65 22 0 79 40 73 50 -8 13 -45
13 -45 0 0 -14 -63 -13 -95 2 -14 6 -25 17 -25 23 0 15 27 38 63 53 15 6 27
19 27 29 0 9 12 30 27 45 20 21 36 28 64 28 40 0 89 17 89 32 0 11 -3 10 -36
-7 -16 -8 -49 -14 -74 -14 l-45 2 51 6 c73 9 104 32 104 79 1 31 2 34 11 18 8
-13 8 -25 0 -43 -7 -14 -9 -28 -6 -31 9 -9 16 4 22 41 5 32 1 41 -30 72 -36
36 -56 41 -94 23z m61 -11 c16 -12 14 -13 -16 -9 -41 5 -56 -11 -74 -76 -10
-36 -13 -41 -13 -19 -1 47 43 116 75 117 5 0 18 -6 28 -13z m-10 -24 c7 -7
-52 -73 -66 -73 -8 0 9 46 25 68 10 13 30 16 41 5z m16 -85 c-42 -34 -56 -21
-19 18 28 29 35 32 38 18 2 -10 -7 -26 -19 -36z m-170 -138 c0 -5 -13 -10 -30
-10 -16 0 -30 5 -30 10 0 6 14 10 30 10 17 0 30 -4 30 -10z"/>
<path d="M2880 2125 c-9 -10 -9 -19 -2 -27 17 -22 17 -52 -1 -78 -19 -28 -23
-106 -6 -143 6 -13 24 -31 40 -41 35 -21 36 -29 7 -44 -18 -8 0 -11 85 -11 70
-1 106 3 102 9 -3 6 -15 10 -26 10 -31 0 -22 15 20 33 27 12 40 25 44 43 6 33
-16 44 -86 44 -55 0 -86 -17 -72 -40 10 -17 -21 -11 -43 8 -23 20 -35 52 -24
67 4 6 16 15 28 22 18 9 24 8 41 -8 38 -38 97 -31 86 11 -7 25 -137 142 -147
132 -4 -4 -13 1 -21 11 -11 15 -14 15 -25 2z m246 -226 c10 -16 -16 -29 -59
-29 -43 0 -81 16 -72 31 9 13 122 11 131 -2z"/>
<path d="M1140 1986 c0 -3 24 -43 53 -88 73 -113 92 -146 86 -153 -3 -3 -26 3
-50 14 -62 27 -125 33 -188 18 l-53 -13 67 -39 c105 -62 190 -159 255 -292 30
-62 62 -115 70 -118 10 -4 26 7 46 29 17 20 35 36 41 36 5 0 24 -16 43 -35 40
-41 171 -131 247 -169 151 -75 332 -129 501 -147 133 -14 427 -6 537 16 304
60 534 168 720 337 19 18 20 17 41 -9 55 -71 61 -76 77 -70 9 3 34 44 55 89
71 153 170 268 279 325 29 15 53 31 53 34 0 12 -52 20 -127 20 -62 0 -82 -4
-119 -26 -24 -14 -44 -23 -44 -19 0 11 70 134 112 197 46 68 37 72 -57 27
-128 -61 -210 -149 -276 -297 -23 -51 -32 -64 -41 -55 -21 21 -54 13 -89 -24
-140 -147 -364 -251 -643 -300 -109 -19 -397 -21 -501 -4 -262 44 -470 142
-617 292 -36 37 -73 68 -81 68 -9 0 -31 32 -53 77 -50 101 -131 187 -220 234
-65 34 -124 56 -124 45z m128 -83 c77 -48 143 -125 197 -234 l34 -67 -79 -67
c-72 -60 -100 -72 -100 -44 0 35 -136 191 -210 241 l-25 17 42 0 c50 1 79 -10
156 -61 33 -23 57 -33 57 -26 0 32 -32 114 -69 177 -53 90 -53 94 -3 64z
m2491 -45 c-46 -80 -71 -137 -77 -180 l-5 -39 67 46 c57 40 75 48 129 52 l62
6 -43 -32 c-64 -47 -118 -106 -172 -189 -35 -53 -51 -71 -55 -60 -4 9 -36 35
-71 58 -36 23 -68 49 -71 58 -9 22 70 171 120 228 38 43 119 104 139 104 5 0
-6 -24 -23 -52z m-2182 -306 c42 -52 161 -141 253 -190 185 -97 388 -142 645
-142 365 0 679 104 903 299 32 28 62 51 65 51 13 0 117 -73 117 -82 0 -18
-131 -136 -212 -191 -131 -87 -316 -166 -463 -198 -168 -36 -218 -42 -415 -42
-173 -1 -221 3 -311 21 -269 55 -495 166 -653 319 -26 26 -55 58 -64 71 -15
23 -14 25 39 73 30 26 57 48 60 49 3 0 19 -17 36 -38z m-147 -137 c0 -7 -9
-23 -20 -36 -17 -21 -21 -22 -30 -9 -14 21 -12 74 3 89 10 10 15 8 30 -10 9
-11 17 -27 17 -34z m2205 21 c8 -19 13 -42 10 -50 -16 -51 -14 -50 -36 -25
-49 55 -53 68 -34 89 26 29 44 25 60 -14z"/>
<path d="M3391 1455 c0 -14 38 -59 45 -53 3 3 -6 19 -20 34 -14 16 -25 25 -25
19z"/>
<path d="M1592 1420 c-25 -34 -29 -48 -7 -30 8 7 22 9 31 6 14 -5 15 -4 4 9
-17 21 -4 32 20 17 31 -19 38 -14 11 8 -30 26 -33 25 -59 -10z"/>
<path d="M3327 1393 c33 -53 33 -54 59 -36 29 18 25 30 -5 14 -17 -10 -22 -7
-38 19 -9 16 -21 30 -25 30 -5 0 -1 -12 9 -27z"/>
<path d="M1661 1372 c-12 -17 -21 -33 -21 -37 0 -10 32 -34 45 -34 6 0 1 6
-10 15 -19 14 -19 16 -2 46 23 40 15 47 -12 10z"/>
<path d="M3280 1392 c0 -4 7 -18 16 -30 16 -23 13 -52 -5 -52 -6 0 -18 14 -26
31 -9 17 -19 29 -21 26 -3 -3 2 -19 11 -36 17 -33 45 -40 65 -16 10 12 8 21
-10 50 -21 35 -30 42 -30 27z"/>
<path d="M1752 1343 c-22 -8 -43 -58 -29 -72 18 -18 45 -13 62 13 23 34 3 71
-33 59z m28 -24 c0 -17 -20 -49 -31 -49 -16 0 -22 29 -9 45 14 17 40 20 40 4z"/>
<path d="M3172 1331 c-11 -6 -10 -15 4 -44 18 -38 40 -51 29 -18 -3 12 0 21
10 25 25 9 19 46 -7 46 -13 0 -29 -4 -36 -9z m43 -10 c7 -12 -12 -24 -25 -16
-11 7 -4 25 10 25 5 0 11 -4 15 -9z"/>
<path d="M1810 1270 c-11 -22 -16 -40 -11 -40 5 0 12 7 15 16 9 22 26 7 27
-24 1 -23 2 -23 6 -5 2 12 11 27 19 33 21 18 17 35 -11 48 -23 11 -26 9 -45
-28z m48 2 c2 -7 -3 -12 -12 -12 -9 0 -16 7 -16 16 0 17 22 14 28 -4z"/>
<path d="M3093 1289 c-18 -18 7 -69 35 -69 28 0 38 23 24 56 -12 25 -40 32
-59 13z m47 -18 c14 -27 13 -41 -5 -41 -14 0 -35 29 -35 49 0 18 29 12 40 -8z"/>
<path d="M1895 1234 c-17 -41 -13 -48 25 -58 25 -6 25 -6 3 5 -13 7 -23 18
-23 26 0 10 7 12 23 8 21 -6 21 -5 4 9 -20 16 -8 30 17 20 9 -3 16 -1 16 5 0
6 -4 11 -9 11 -5 0 -16 3 -25 6 -11 4 -20 -5 -31 -32z"/>
<path d="M3013 1262 c-9 -5 -9 -16 0 -45 11 -35 31 -53 25 -23 -2 8 6 21 16
29 36 26 -3 63 -41 39z m41 -11 c3 -5 -1 -14 -8 -20 -16 -13 -32 2 -21 19 8
12 22 13 29 1z"/>
<path d="M1982 1195 l-22 -35 29 0 c16 0 32 -6 34 -12 3 -7 6 8 6 35 1 57 -15
61 -47 12z m38 -3 c0 -13 -12 -22 -22 -16 -10 6 -1 24 13 24 5 0 9 -4 9 -8z"/>
<path d="M2893 1214 c-7 -18 4 -31 30 -36 24 -4 17 -24 -8 -20 -14 2 -17 0 -8
-9 15 -15 47 -7 51 14 3 12 -6 21 -27 28 -34 12 -32 34 1 23 14 -4 18 -2 14 5
-11 16 -46 13 -53 -5z"/>
<path d="M2070 1209 c0 -5 5 -9 11 -9 6 0 8 -9 5 -20 -3 -11 -9 -30 -12 -41
-4 -14 -2 -19 4 -15 6 3 13 19 17 36 3 16 14 30 23 32 11 3 6 8 -15 15 -19 7
-33 8 -33 2z"/>
<path d="M2827 1203 c-4 -3 -7 -24 -7 -46 0 -33 2 -38 15 -27 8 6 23 9 36 5
l21 -7 -18 32 c-23 38 -38 52 -47 43z m27 -38 c3 -8 1 -15 -4 -15 -6 0 -10 7
-10 15 0 8 2 15 4 15 2 0 6 -7 10 -15z"/>
<path d="M2750 1190 c-17 -5 -19 -8 -7 -9 12 -1 17 -9 17 -28 0 -16 5 -35 11
-43 8 -11 9 -4 5 28 -4 25 -2 42 4 42 5 0 10 5 10 10 0 11 -5 11 -40 0z"/>
<path d="M2189 1174 c-12 -15 -11 -19 9 -32 12 -8 22 -18 22 -23 0 -14 -28
-11 -33 4 -4 7 -6 6 -6 -4 -1 -19 22 -31 44 -23 21 8 19 32 -5 46 -11 7 -20
16 -20 20 0 13 28 9 33 -4 4 -8 6 -7 6 3 1 9 -6 20 -15 23 -21 8 -20 8 -35
-10z"/>
<path d="M2623 1173 c-15 -6 -17 -69 -3 -78 6 -3 10 1 10 9 0 21 9 20 33 -1
12 -11 17 -12 12 -4 -4 8 -8 28 -9 45 -1 30 -16 41 -43 29z m37 -23 c0 -5 -7
-10 -15 -10 -8 0 -15 5 -15 10 0 6 7 10 15 10 8 0 15 -4 15 -10z"/>
<path d="M2697 1153 c7 -40 13 -57 19 -50 7 7 -7 77 -16 77 -4 0 -5 -12 -3
-27z"/>
<path d="M2275 1134 c-19 -45 -19 -43 5 -37 11 3 27 0 35 -7 18 -15 19 -9 3
41 -6 22 -15 39 -19 39 -5 0 -16 -16 -24 -36z m35 -15 c0 -5 -4 -9 -10 -9 -5
0 -10 7 -10 16 0 8 5 12 10 9 6 -3 10 -10 10 -16z"/>
<path d="M2358 1136 c-9 -48 -4 -56 30 -55 23 2 24 2 5 6 -18 3 -22 12 -25 46
l-3 42 -7 -39z"/>
<path d="M2529 1166 c-3 -3 -3 -23 -1 -46 4 -38 6 -41 31 -38 22 2 26 8 26 33
0 17 -4 36 -9 43 -8 12 -38 17 -47 8z m41 -21 c0 -8 -7 -15 -15 -15 -8 0 -15
7 -15 15 0 8 7 15 15 15 8 0 15 -7 15 -15z m0 -40 c0 -8 -7 -15 -15 -15 -8 0
-15 7 -15 15 0 8 7 15 15 15 8 0 15 -7 15 -15z"/>
<path d="M2430 1133 c0 -39 13 -55 41 -51 20 2 24 9 26 43 l1 40 -6 -35 c-9
-46 -36 -47 -40 -2 -4 39 -22 43 -22 5z"/>
<path d="M3849 4209 c-41 -50 -91 -113 -112 -140 l-37 -48 25 -17 c25 -16 26
-16 49 12 189 234 199 247 189 263 -21 33 -41 21 -114 -70z"/>
<path d="M1052 4278 c-7 -7 -12 -16 -12 -21 0 -4 48 -71 106 -148 93 -121 108
-137 123 -126 109 80 171 132 171 142 0 7 -7 18 -15 25 -12 10 -27 3 -84 -43
l-69 -56 -34 42 c-18 23 -60 77 -92 120 -59 78 -72 87 -94 65z"/>
<path d="M3920 4085 c-123 -123 -136 -146 -94 -162 10 -4 32 10 64 42 l49 48
50 -46 c40 -38 57 -47 86 -47 43 0 81 23 101 61 30 58 12 98 -82 182 l-51 46
-123 -124z m210 -54 c0 -19 -43 -61 -62 -61 -5 0 -28 18 -51 39 l-42 40 40 41
40 41 38 -40 c20 -22 37 -49 37 -60z"/>
<path d="M837 4071 l-69 -70 122 -118 c67 -65 128 -121 135 -125 17 -10 131
117 140 155 15 57 -34 117 -95 117 -26 0 -30 3 -30 28 0 42 -46 82 -95 82 -34
0 -46 -8 -108 -69z m134 -1 c29 -16 23 -50 -17 -94 l-35 -39 -34 33 -35 34 37
38 c39 40 52 44 84 28z m119 -110 c28 -28 25 -44 -17 -90 l-36 -41 -39 38 -38
37 37 38 c42 43 64 47 93 18z"/>
<path d="M4131 3855 l-141 -106 16 -25 c14 -21 19 -23 35 -12 10 7 36 26 58
42 l40 28 55 -57 c53 -56 56 -58 96 -52 74 10 118 73 96 138 -13 36 -93 149
-106 149 -4 0 -71 -47 -149 -105z m173 -8 c32 -41 35 -92 7 -107 -35 -18 -57
-11 -91 32 l-34 41 39 34 c21 18 42 33 46 33 4 0 19 -15 33 -33z"/>
<path d="M682 3888 c-23 -23 -11 -43 50 -83 116 -74 158 -113 158 -143 0 -33
-36 -72 -66 -72 -11 0 -71 34 -132 75 l-111 75 -16 -22 c-19 -28 -16 -31 118
-122 108 -73 139 -80 195 -46 68 41 93 131 51 183 -17 23 -195 152 -224 163
-6 3 -16 -1 -23 -8z"/>
<path d="M4445 3678 c-88 -49 -276 -162 -280 -168 -3 -5 3 -17 13 -29 17 -21
17 -20 161 64 79 46 148 88 153 93 5 5 1 18 -9 30 -15 18 -22 19 -38 10z"/>
<path d="M504 3560 c-12 -5 -30 -21 -41 -37 -18 -27 -27 -45 -60 -121 l-14
-33 147 -70 c80 -38 155 -71 166 -72 13 -1 23 6 29 21 8 20 3 25 -55 54 l-64
31 18 42 c40 93 34 141 -22 175 -35 21 -69 24 -104 10z m78 -67 c10 -9 18 -26
18 -39 0 -27 -30 -94 -42 -94 -18 0 -88 41 -88 51 0 11 28 68 42 87 14 17 48
15 70 -5z"/>
<path d="M4415 3496 c-66 -29 -137 -60 -157 -69 -42 -18 -45 -24 -24 -52 13
-18 15 -18 67 4 30 13 76 34 103 47 27 13 51 22 53 20 2 -2 -30 -52 -72 -112
-54 -78 -75 -116 -73 -134 5 -44 14 -42 226 56 41 19 77 34 82 34 16 0 31 30
25 50 -8 25 -17 23 -134 -31 -46 -22 -86 -37 -89 -35 -4 4 67 111 127 193 21
28 23 36 13 58 -6 14 -15 24 -19 24 -5 -1 -62 -25 -128 -53z"/>
<path d="M345 3258 c-24 -71 -61 -219 -56 -222 3 -2 33 -11 66 -21 33 -9 71
-21 85 -25 110 -35 173 -51 184 -47 15 6 70 201 62 223 -3 8 -14 14 -23 12
-12 -2 -25 -28 -42 -83 -13 -44 -25 -81 -26 -82 -3 -5 -80 19 -88 27 -5 4 -1
31 7 61 13 42 13 54 4 61 -27 16 -38 6 -53 -47 -18 -60 -32 -67 -86 -42 l-27
12 24 80 c22 74 22 81 7 93 -9 6 -21 12 -25 12 -5 0 -11 -6 -13 -12z"/>
<path d="M4630 3194 c-25 -8 -97 -28 -160 -45 -63 -17 -118 -34 -121 -37 -10
-11 53 -232 65 -232 6 0 17 4 25 9 12 8 11 22 -8 91 -12 46 -19 86 -14 91 4 4
27 11 50 15 32 5 44 3 47 -7 2 -8 9 -33 15 -56 9 -32 17 -43 31 -43 27 0 30
11 19 56 -19 71 -18 75 29 89 23 7 44 10 46 6 4 -6 33 -106 43 -148 6 -24 19
-28 41 -14 11 7 8 29 -15 121 -16 63 -33 115 -38 116 -6 1 -30 -4 -55 -12z"/>
<path d="M309 2902 c-44 -22 -65 -68 -74 -158 l-7 -70 139 -17 c76 -10 157
-20 181 -24 41 -6 42 -5 42 24 0 26 -5 31 -31 37 -17 3 -46 6 -63 6 -48 0 -62
13 -51 46 8 23 22 32 87 53 69 22 77 27 80 53 5 34 -7 36 -80 8 -66 -25 -79
-25 -87 0 -14 45 -85 67 -136 42z m79 -64 c13 -13 16 -75 6 -102 -7 -18 -69
-22 -93 -7 -16 10 -8 85 11 108 13 16 60 17 76 1z"/>
<path d="M4632 2862 c-13 -10 -33 -48 -48 -92 -29 -86 -38 -100 -70 -100 -56
0 -62 110 -7 131 34 12 28 53 -7 57 -53 6 -98 -76 -81 -148 17 -77 43 -100
110 -100 34 0 44 5 65 33 15 19 26 40 26 48 0 20 30 102 42 116 33 41 90 -25
69 -80 -6 -15 -22 -32 -37 -37 -18 -7 -24 -15 -20 -26 3 -9 6 -20 6 -25 0 -19
48 -8 73 17 34 33 43 82 27 140 -21 76 -93 108 -148 66z"/>
<path d="M365 2428 c-6 -23 -13 -28 -39 -28 l-31 -1 23 -19 c20 -16 22 -25 17
-52 l-7 -33 21 20 c18 16 25 17 41 7 28 -17 33 -15 26 14 -5 19 -1 30 16 44
l23 19 -31 1 c-24 0 -32 6 -41 28 l-10 27 -8 -27z"/>
<path d="M4655 2418 c-6 -24 -12 -28 -44 -28 l-36 -1 27 -20 c22 -16 27 -26
22 -45 -7 -26 5 -31 24 -12 10 10 17 10 32 0 27 -17 32 -15 25 9 -5 14 0 28
16 45 l22 24 -29 0 c-24 0 -32 6 -41 28 l-10 27 -8 -27z"/>
<path d="M495 2120 c-33 -10 -99 -28 -147 -41 -99 -27 -98 -25 -73 -119 10
-38 24 -64 46 -84 28 -25 37 -28 78 -23 74 9 152 37 177 62 17 17 24 35 24 62
0 42 -24 142 -37 153 -4 4 -35 -1 -68 -10z m50 -94 c10 -65 -3 -81 -85 -101
-82 -20 -112 -15 -128 20 -21 45 -15 72 16 78 15 3 61 14 102 25 41 11 78 21
82 21 4 1 10 -19 13 -43z"/>
<path d="M4418 2075 c-6 -30 -9 -28 65 -45 56 -13 58 -15 52 -39 -3 -14 -9
-38 -12 -54 -3 -15 -9 -30 -14 -33 -4 -2 -34 3 -65 12 -59 17 -79 11 -72 -21
2 -14 39 -28 153 -61 82 -23 150 -42 152 -41 1 1 4 14 8 28 6 25 3 26 -59 43
-36 10 -66 20 -66 23 0 3 7 30 16 60 13 43 19 53 32 48 26 -10 113 -27 116
-23 2 1 6 12 10 24 6 19 -3 24 -111 54 -65 17 -131 36 -147 41 -44 14 -53 11
-58 -16z"/>
<path d="M503 1768 c-100 -43 -143 -66 -142 -77 0 -24 73 -184 84 -188 6 -1
16 1 24 6 12 8 10 20 -15 77 -16 37 -31 72 -32 76 -4 8 57 38 76 38 5 0 17
-20 26 -45 12 -31 23 -45 36 -45 29 0 31 14 9 65 -11 26 -19 48 -17 51 2 2 21
10 41 19 l37 15 16 -37 c8 -21 22 -55 31 -75 17 -42 21 -44 46 -25 15 11 15
15 2 42 -7 17 -27 60 -44 98 -16 37 -31 67 -33 66 -2 0 -67 -28 -145 -61z"/>
<path d="M4288 1696 c-33 -75 -43 -107 -35 -115 20 -20 35 -11 51 29 9 22 17
40 19 40 2 0 59 -25 127 -55 67 -31 124 -54 125 -53 1 2 7 13 13 24 11 20 5
24 -81 64 -51 24 -107 49 -124 57 -38 15 -37 13 -18 59 16 40 13 54 -14 54
-12 0 -30 -29 -63 -104z"/>
<path d="M700 1512 c-30 -21 -82 -54 -115 -75 -95 -58 -89 -51 -74 -76 18 -27
22 -27 74 9 24 17 47 30 52 30 4 0 19 -18 32 -39 24 -40 67 -71 98 -71 31 0
79 36 93 69 15 36 10 50 -43 139 -17 28 -38 52 -47 51 -8 0 -40 -17 -70 -37z
m90 -64 c25 -42 25 -74 1 -88 -41 -21 -66 -8 -104 57 -7 11 56 63 75 63 5 0
17 -15 28 -32z"/>
<path d="M4129 1409 c-7 -13 -7 -24 -2 -28 6 -3 34 -21 64 -40 30 -19 85 -54
123 -79 47 -30 74 -42 83 -36 7 5 35 45 62 89 36 58 46 83 39 93 -19 23 -35
12 -73 -53 -21 -36 -40 -65 -44 -65 -3 0 -22 11 -41 24 -51 34 -188 116 -194
116 -3 0 -10 -10 -17 -21z"/>
<path d="M935 1235 c-16 -8 -77 -35 -135 -60 -123 -54 -130 -59 -107 -82 13
-13 23 -15 44 -7 26 9 31 6 66 -35 25 -29 36 -49 31 -60 -15 -37 -14 -48 4
-64 18 -17 21 -13 94 110 106 181 101 167 77 192 -23 25 -33 26 -74 6z m15
-60 c0 -4 -67 -114 -77 -125 -2 -2 -17 11 -33 30 -33 38 -30 43 40 70 19 7 39
17 45 22 10 9 25 11 25 3z"/>
<path d="M3991 1226 c-11 -12 -21 -26 -21 -30 0 -7 149 -261 167 -285 2 -2 12
4 23 14 18 16 18 20 5 45 -14 27 -13 30 28 76 39 43 45 46 66 35 19 -11 26
-10 42 5 32 29 52 17 -257 150 -29 12 -33 11 -53 -10z m152 -92 c20 -9 37 -20
37 -25 0 -5 -13 -23 -28 -40 l-28 -32 -29 49 c-16 27 -35 59 -43 72 l-14 22
33 -15 c19 -8 51 -22 72 -31z"/>
<path d="M1133 1053 c-6 -10 -50 -63 -97 -118 -47 -55 -86 -103 -86 -108 0 -5
7 -16 16 -25 16 -15 20 -13 55 28 22 25 39 48 39 53 0 13 27 7 43 -10 14 -16
14 -24 -5 -91 -19 -71 -19 -74 -1 -87 32 -25 31 -26 53 73 12 50 13 52 47 52
64 0 111 72 87 134 -6 16 -120 116 -132 116 -4 0 -12 -8 -19 -17z m99 -119 c9
-19 8 -28 -7 -44 -10 -11 -25 -20 -33 -20 -18 0 -82 47 -82 60 0 5 12 22 26
39 l26 31 30 -21 c16 -12 34 -32 40 -45z"/>
<path d="M3765 1004 c-41 -36 -75 -68 -75 -71 0 -3 35 -49 78 -102 106 -132
114 -141 125 -141 9 0 83 59 142 112 28 26 29 29 13 44 -16 16 -21 13 -79 -35
-60 -50 -62 -51 -81 -34 -43 39 -43 52 2 90 32 28 38 38 29 49 -17 20 -27 18
-66 -16 -18 -16 -37 -30 -41 -30 -4 0 -17 15 -30 33 l-23 32 28 24 c96 82 95
81 83 96 -7 8 -16 15 -21 15 -5 0 -42 -30 -84 -66z"/>
<path d="M1369 869 c-9 -17 -7 -23 8 -34 59 -43 59 -32 -2 -130 -80 -127 -86
-140 -72 -154 27 -27 31 -23 132 141 l47 78 28 -20 c34 -24 56 -25 64 -3 8 20
11 18 -101 86 -89 54 -93 55 -104 36z"/>
<path d="M3584 866 c-19 -15 -18 -16 9 -64 15 -28 27 -55 27 -61 0 -11 -72
-61 -89 -61 -5 0 -23 25 -40 55 -29 51 -33 55 -54 44 -12 -6 -23 -13 -25 -14
-2 -1 14 -31 34 -66 44 -76 125 -213 129 -217 6 -6 45 19 45 28 0 5 -13 32
-30 58 -16 27 -30 54 -30 60 0 6 20 23 45 38 37 21 48 24 60 14 8 -7 15 -16
15 -21 0 -20 46 -79 61 -79 43 0 36 25 -41 154 -43 71 -83 133 -87 137 -5 5
-17 3 -29 -5z"/>
<path d="M1592 580 l-61 -151 26 -10 c14 -5 27 -8 28 -7 1 2 19 48 41 102 l39
99 15 -53 c9 -29 21 -55 29 -58 7 -2 33 11 59 29 25 18 43 26 40 18 -3 -8 -23
-56 -43 -107 -21 -51 -36 -94 -34 -96 2 -2 15 -6 28 -8 22 -3 28 8 81 145 l59
148 -25 11 c-21 10 -31 6 -83 -30 l-59 -42 -11 45 c-6 24 -11 55 -11 68 0 20
-31 47 -54 47 -2 0 -31 -68 -64 -150z"/>
<path d="M1985 596 c-16 -47 -63 -302 -57 -307 4 -3 45 -14 92 -23 47 -10 93
-20 103 -22 13 -4 17 1 17 20 0 20 -6 27 -27 32 -132 28 -128 25 -117 83 l7
32 58 -7 c55 -6 59 -5 59 14 0 16 -10 23 -51 32 l-51 13 5 39 c3 22 7 41 9 43
2 2 35 -2 73 -10 91 -19 95 -19 95 8 0 21 -8 24 -106 43 -73 15 -107 18 -109
10z"/>
<path d="M3233 572 c-24 -9 -43 -20 -43 -25 0 -18 53 -158 62 -163 17 -11 21
6 11 40 -10 33 -9 35 18 46 41 17 36 31 -8 28 -32 -3 -38 0 -41 18 -2 17 6 25
38 38 23 9 38 21 35 26 -8 13 -20 11 -72 -8z"/>
<path d="M2703 558 c-89 -10 -93 -11 -93 -34 0 -22 4 -24 44 -24 50 0 47 5 61
-135 12 -128 14 -135 42 -135 l26 0 -8 93 c-5 50 -9 115 -9 142 l-1 50 38 5
c21 3 38 8 37 13 0 4 0 14 0 22 0 17 -1 17 -137 3z"/>
<path d="M2277 394 c-4 -86 -4 -160 -1 -165 11 -18 42 -9 48 14 3 12 6 59 6
105 0 45 3 82 8 82 4 0 32 -46 62 -101 53 -98 89 -135 109 -113 5 5 12 80 15
167 l7 157 -30 0 -31 0 0 -98 c0 -54 -3 -102 -6 -105 -7 -6 -30 32 -94 156
-26 49 -34 57 -59 57 l-28 0 -6 -156z"/>
<path d="M3074 520 c-30 -12 -37 -27 -36 -70 2 -56 28 -109 56 -116 31 -7 80
15 84 40 8 39 -10 109 -33 132 -26 26 -37 28 -71 14z m55 -34 c6 -8 14 -37 18
-65 5 -43 3 -52 -12 -57 -27 -11 -48 9 -62 56 -9 29 -9 48 -2 61 11 22 42 25
58 5z"/>
</g>
</svg>
