<?xml version="1.0" standalone="no"?>
<!DOCTYPE svg PUBLIC "-//W3C//DTD SVG 20010904//EN"
 "http://www.w3.org/TR/2001/REC-SVG-20010904/DTD/svg10.dtd">
<svg version="1.0" xmlns="http://www.w3.org/2000/svg"
 width="736.000000pt" height="339.000000pt" viewBox="0 0 736.000000 339.000000"
 preserveAspectRatio="xMidYMid meet">

<g transform="translate(0.000000,339.000000) scale(0.100000,-0.100000)"
fill="#000000" stroke="none">
<path d="M5810 2562 c0 -5 9 -17 19 -26 11 -10 27 -33 35 -51 l16 -33 42 16
c30 11 79 16 158 16 100 1 124 -3 185 -25 39 -15 118 -37 175 -49 97 -21 175
-51 260 -101 45 -26 80 -86 80 -139 0 -50 -38 -120 -83 -152 -34 -24 -67 -55
-67 -62 0 -3 33 -23 73 -45 89 -49 169 -71 258 -71 110 0 151 -25 134 -82 -11
-36 -83 -128 -144 -186 -38 -35 -52 -55 -44 -60 6 -4 24 -25 39 -47 21 -30 29
-55 31 -100 3 -53 0 -66 -27 -108 -43 -67 -80 -87 -163 -87 -84 0 -112 14
-156 77 -19 26 -36 50 -37 51 -1 2 -15 -5 -31 -15 -15 -11 -56 -38 -90 -61
-34 -23 -73 -47 -85 -52 -13 -6 -43 -24 -68 -40 -25 -16 -56 -35 -70 -40 -14
-6 -65 -31 -114 -56 -48 -24 -96 -44 -106 -44 -11 0 -22 -5 -25 -10 -4 -7 209
-9 642 -8 l648 3 0 795 0 795 -742 3 c-409 1 -743 -2 -743 -6z"/>
<path d="M80 1750 l0 -781 88 3 87 3 5 588 5 589 21 -24 c12 -13 29 -37 38
-54 8 -18 36 -62 61 -98 25 -36 45 -70 45 -75 0 -5 15 -30 34 -54 19 -25 42
-60 52 -78 9 -18 31 -53 49 -79 18 -26 41 -62 50 -81 10 -19 26 -45 37 -59 32
-42 148 -221 148 -229 0 -8 88 -131 94 -131 6 0 96 128 96 136 0 5 17 33 39
64 21 30 51 78 66 105 15 28 35 59 45 70 10 11 25 34 33 51 14 27 57 96 124
196 30 46 133 211 163 262 59 101 55 135 60 -510 l5 -589 92 -3 c89 -3 93 -2
98 20 3 13 4 363 3 778 l-3 755 -86 3 c-85 3 -87 2 -109 -25 -26 -34 -150
-225 -150 -232 0 -2 -24 -41 -53 -85 -29 -45 -71 -109 -93 -144 -81 -129 -151
-239 -268 -419 -25 -40 -50 -73 -55 -73 -9 0 -101 125 -101 137 0 5 -64 105
-152 235 -21 31 -38 61 -38 66 0 5 -14 26 -30 47 -17 21 -45 63 -62 94 -17 31
-42 69 -56 85 -13 17 -28 40 -33 53 -5 13 -26 47 -47 76 -22 28 -47 68 -57 87
-10 19 -30 50 -44 67 -26 33 -27 33 -113 33 l-88 0 0 -780z"/>
<path d="M2172 2003 l3 -528 90 0 90 0 3 528 2 527 -95 0 -95 0 2 -527z"/>
<path d="M3450 2035 l0 -495 73 6 c39 3 82 7 95 10 l22 4 0 485 0 485 -95 0
-95 0 0 -495z"/>
<path d="M4633 2518 c-7 -12 -197 -386 -369 -728 -40 -80 -69 -147 -63 -148
16 -6 183 19 194 28 6 5 80 147 164 315 89 178 157 302 163 299 6 -4 24 -36
40 -73 52 -115 211 -431 217 -431 15 1 154 39 159 44 3 4 -33 84 -80 179 -47
94 -125 252 -173 350 l-86 177 -79 0 c-52 0 -81 -4 -87 -12z"/>
<path d="M6370 2352 c0 -74 -101 -165 -286 -256 -239 -119 -546 -219 -1024
-336 -130 -32 -474 -101 -650 -130 -74 -12 -184 -31 -245 -41 -60 -10 -155
-23 -210 -29 -55 -6 -163 -20 -240 -31 -395 -54 -956 -88 -1505 -90 -297 -1
-305 -5 -72 -39 264 -38 825 -51 1362 -30 310 12 398 20 1135 100 55 6 177 25
270 41 94 16 220 36 280 45 61 9 184 33 275 54 91 21 183 41 205 44 22 4 108
25 190 48 361 98 621 201 760 301 206 147 160 264 -142 362 -100 33 -103 33
-103 -13z"/>
<path d="M6825 1741 c-49 -15 -117 -42 -150 -59 -33 -18 -66 -32 -72 -32 -22
0 -13 -14 44 -63 41 -36 61 -47 77 -43 11 3 39 6 61 6 35 0 48 7 106 63 37 35
74 77 83 95 14 28 14 32 0 46 -21 22 -44 20 -149 -13z"/>
<path d="M6498 1604 c-16 -8 -28 -18 -28 -23 0 -4 20 -22 45 -40 25 -18 45
-36 45 -40 0 -4 20 -21 44 -38 l44 -31 -5 -64 c-3 -51 -1 -69 16 -95 43 -68
143 -87 206 -39 62 47 65 53 65 119 0 72 -13 96 -71 132 -40 26 -112 34 -124
15 -13 -21 -39 -8 -110 55 -40 36 -79 65 -86 65 -8 -1 -26 -8 -41 -16z"/>
<path d="M6375 1539 c-83 -44 -282 -167 -349 -216 -21 -15 -53 -37 -70 -48
-67 -42 -230 -180 -257 -218 -44 -61 -36 -97 22 -97 37 0 192 50 277 90 126
59 299 148 357 184 28 17 62 38 76 46 69 40 169 112 169 123 0 7 -17 26 -37
42 -21 17 -58 49 -82 73 -24 23 -49 42 -55 42 -6 0 -29 -10 -51 -21z"/>
<path d="M5196 1523 c-39 -7 -74 -17 -78 -21 -7 -7 45 -122 139 -307 8 -16 31
-61 50 -100 67 -133 50 -120 152 -123 50 -1 91 -1 91 0 0 12 -52 126 -83 181
-20 37 -37 71 -37 75 0 15 -146 302 -155 305 -5 2 -41 -3 -79 -10z"/>
<path d="M4185 1384 c-11 -2 -46 -6 -77 -9 l-57 -6 -95 -195 c-53 -106 -96
-196 -96 -199 0 -3 44 -4 97 -3 l98 3 102 205 c57 113 103 206 103 208 0 3
-47 0 -75 -4z"/>
<path d="M2170 1165 l0 -196 93 3 92 3 3 179 c1 99 -1 183 -5 187 -5 3 -47 10
-95 13 l-88 7 0 -196z"/>
<path d="M3450 1155 l0 -185 95 0 95 0 0 185 0 185 -95 0 -95 0 0 -185z"/>
</g>
</svg>
