<?xml version="1.0" standalone="no"?>
<!DOCTYPE svg PUBLIC "-//W3C//DTD SVG 20010904//EN"
 "http://www.w3.org/TR/2001/REC-SVG-20010904/DTD/svg10.dtd">
<svg version="1.0" xmlns="http://www.w3.org/2000/svg"
 width="500.000000pt" height="500.000000pt" viewBox="0 0 500.000000 500.000000"
 preserveAspectRatio="xMidYMid meet">

<g transform="translate(0.000000,500.000000) scale(0.100000,-0.100000)"
fill="#000000" stroke="none">
<path d="M255 3972 c-93 -32 -175 -118 -192 -201 -5 -20 -8 -605 -8 -1301 l1
-1265 23 -53 c31 -69 106 -137 174 -157 44 -13 249 -15 1616 -15 l1566 0 94
173 c52 94 172 312 266 482 413 747 470 851 473 863 2 7 -60 129 -139 270 -78
141 -190 345 -249 452 -296 540 -384 698 -406 733 l-24 37 -1573 0 c-1464 -1
-1575 -2 -1622 -18z m711 -1094 c103 -167 242 -391 308 -498 l121 -194 3 497
2 497 115 0 115 0 -2 -677 -3 -678 -122 -3 -121 -3 -309 496 c-169 272 -310
495 -313 495 -3 0 -5 -222 -5 -492 l0 -493 -115 0 -115 0 -3 665 c-1 366 0
671 3 678 3 9 38 12 128 12 l124 0 189 -302z m1134 -378 l0 -681 -117 3 -118
3 -3 678 -2 677 120 0 120 0 0 -680z m480 410 l0 -270 308 2 307 3 3 268 2
268 118 -3 117 -3 0 -665 c0 -366 -2 -671 -4 -677 -2 -10 -34 -13 -117 -13
l-114 0 0 305 0 305 -310 0 -310 0 -2 -302 -3 -303 -115 0 -115 0 -3 678 -2
677 120 0 120 0 0 -270z"/>
<path d="M3674 3974 c4 -9 100 -186 215 -393 526 -949 593 -1072 587 -1087 -3
-9 -134 -246 -290 -527 -451 -814 -536 -970 -536 -980 0 -5 59 -7 143 -5 137
3 145 4 208 35 39 19 84 52 110 80 30 32 119 183 274 463 126 228 293 531 372
673 79 142 143 265 143 272 0 8 -93 182 -206 387 -114 205 -271 491 -350 636
-175 319 -182 330 -235 375 -73 63 -133 80 -298 85 -134 4 -143 3 -137 -14z"/>
</g>
</svg>
