<?xml version="1.0" standalone="no"?>
<!DOCTYPE svg PUBLIC "-//W3C//DTD SVG 20010904//EN"
 "http://www.w3.org/TR/2001/REC-SVG-20010904/DTD/svg10.dtd">
<svg version="1.0" xmlns="http://www.w3.org/2000/svg"
 width="513.000000pt" height="486.000000pt" viewBox="0 0 513.000000 486.000000"
 preserveAspectRatio="xMidYMid meet">

<g transform="translate(0.000000,486.000000) scale(0.100000,-0.100000)"
fill="#000000" stroke="none">
<path d="M2493 4650 c-65 -39 -83 -129 -58 -275 15 -85 22 -227 40 -818 l7
-239 27 8 c14 4 51 12 81 18 l55 12 7 344 c9 387 18 534 43 696 23 147 12 212
-43 249 -46 31 -113 34 -159 5z"/>
<path d="M2305 4304 c-11 -3 -58 -12 -105 -21 -297 -55 -616 -229 -850 -463
-285 -284 -459 -631 -511 -1020 -23 -172 -13 -444 23 -585 52 -208 101 -336
191 -495 255 -448 695 -760 1212 -856 154 -29 470 -26 625 5 430 88 806 323
1066 666 61 81 147 220 177 285 8 19 26 60 40 90 75 166 137 464 137 660 0 86
-22 271 -44 376 -150 704 -773 1281 -1465 1360 l-61 7 0 -27 c0 -31 -6 -28
125 -49 289 -46 585 -194 835 -416 l45 -40 -94 -92 c-88 -85 -95 -90 -103 -70
-6 17 -13 21 -29 16 -12 -4 -19 -3 -16 2 12 18 -16 99 -45 129 -43 46 -150 98
-183 90 -25 -6 -26 -8 -13 -29 26 -40 57 -141 63 -207 5 -54 12 -72 41 -107
20 -24 30 -43 24 -43 -8 0 -10 -9 -6 -23 4 -18 -2 -31 -25 -53 -30 -28 -31
-28 -45 -10 -7 11 -16 18 -18 15 -13 -14 -46 -91 -42 -98 3 -4 -39 -52 -93
-105 -96 -95 -100 -98 -121 -83 -26 18 -72 4 -63 -19 3 -8 -1 -14 -11 -14 -9
0 -19 -7 -22 -15 -4 -9 -11 -15 -18 -14 -18 3 -46 -12 -40 -22 7 -11 42 -2 64
16 8 7 25 16 38 19 33 11 28 -14 -10 -51 -24 -22 -46 -32 -83 -37 -27 -3 -51
-11 -53 -16 -2 -6 -8 -10 -14 -10 -6 0 -4 8 5 18 10 10 17 25 17 33 -1 9 -8 6
-20 -10 -21 -25 -27 -66 -10 -76 6 -3 10 -10 10 -16 0 -15 -58 -11 -91 7 -17
8 -32 14 -34 12 -1 -2 -4 -68 -6 -147 l-4 -144 36 -12 c251 -88 362 -251 302
-444 -32 -98 -132 -175 -295 -225 l-58 -18 0 -78 0 -79 53 -30 c130 -74 197
-189 200 -339 2 -78 0 -85 -23 -105 -24 -21 -76 -35 -195 -54 -37 -6 -51 -13
-53 -27 -7 -32 11 -36 110 -21 252 38 484 143 697 315 l64 52 100 -100 100
-100 -78 -63 c-415 -343 -916 -471 -1434 -368 -180 36 -391 122 -551 224 -82
52 -260 191 -260 203 0 4 44 51 98 105 l97 97 30 -26 c126 -110 267 -197 407
-253 87 -34 241 -77 313 -86 28 -3 62 -8 78 -11 25 -5 27 -3 27 24 0 29 -2 30
-52 37 -274 34 -508 139 -732 329 -27 22 -28 26 -15 43 22 29 42 37 79 34 26
-2 41 4 54 18 15 16 31 21 73 21 44 0 55 3 61 19 7 18 13 16 87 -30 44 -27
100 -57 125 -66 25 -9 50 -20 55 -23 14 -10 160 -47 213 -54 41 -6 42 -6 42
23 0 27 -2 29 -74 40 -140 23 -315 103 -431 197 l-57 47 98 98 c54 55 104 99
110 99 6 0 19 -9 29 -20 19 -22 124 -85 129 -79 2 2 6 14 10 25 5 18 -2 27
-42 53 -104 67 -105 53 13 171 97 97 105 103 122 88 10 -9 33 -23 51 -32 l32
-17 0 30 c0 23 -7 34 -30 48 -35 21 -36 24 -10 48 26 23 25 29 -4 43 -19 8
-27 7 -44 -10 l-20 -21 -22 34 c-13 20 -51 51 -92 74 -76 43 -154 121 -183
181 -23 48 -44 138 -45 188 0 53 27 152 58 209 l26 48 -98 98 c-54 55 -96 103
-92 109 15 24 162 126 234 162 83 41 228 90 268 90 20 0 24 5 24 31 0 29 -2
30 -32 24 -191 -36 -351 -112 -497 -234 -43 -36 -49 -39 -63 -24 -15 14 -17
13 -28 -6 -6 -12 -9 -30 -5 -39 3 -10 -3 -27 -14 -38 -73 -79 -174 -250 -202
-343 -31 -104 -59 -245 -59 -298 l0 -33 -146 0 -146 0 7 73 c23 260 99 471
241 672 35 50 77 105 93 124 l30 34 49 -45 c39 -37 54 -45 75 -41 15 3 27 8
27 12 0 4 -22 29 -50 56 -27 27 -50 54 -50 60 0 9 73 71 148 126 29 20 88 107
79 115 -9 9 -245 -165 -255 -188 -2 -5 -9 -8 -16 -8 -14 0 -196 181 -196 196
0 20 184 166 305 241 149 93 373 178 546 208 147 25 141 23 137 48 -3 23 -36
31 -83 21z m-851 -663 l99 -99 -52 -59 c-123 -137 -232 -343 -285 -533 -21
-77 -46 -240 -46 -300 l0 -50 -146 0 -145 0 6 83 c17 207 43 319 134 557 25
66 105 209 170 302 47 68 152 196 161 197 3 1 50 -44 104 -98z m2423 -14 c159
-197 269 -425 332 -687 18 -76 41 -253 41 -316 l0 -24 -145 0 -145 0 0 55 c0
123 -45 317 -107 464 -28 65 -33 85 -23 91 19 12 -65 143 -133 208 -30 28 -68
67 -85 88 l-30 36 101 100 c97 96 101 99 116 81 9 -11 44 -54 78 -96z m-375
-285 c2 -21 15 -34 60 -57 34 -18 80 -56 114 -93 49 -54 60 -62 83 -57 30 6
29 7 82 -147 32 -94 54 -202 64 -315 l7 -73 -144 0 -144 0 -12 108 c-9 80 -10
122 -2 166 19 97 -4 203 -63 300 -17 28 -31 58 -29 66 1 9 -11 23 -28 33 -24
15 -30 15 -30 4 0 -8 9 -22 19 -31 20 -19 81 -138 100 -196 14 -47 19 -144 6
-149 -5 -2 -16 16 -24 40 -7 24 -18 52 -22 61 -5 10 -9 29 -9 43 0 15 -7 28
-17 32 -26 10 -34 25 -27 55 5 23 3 27 -11 22 -13 -5 -15 -2 -9 22 6 28 6 28
-11 12 -17 -16 -20 -15 -48 25 -17 23 -39 50 -49 61 -18 20 -17 21 22 61 35
36 44 40 79 37 35 -3 40 -8 43 -30z m-1472 -288 c0 -6 -9 -19 -20 -29 -11 -10
-33 -41 -49 -70 -25 -44 -36 -54 -65 -59 -20 -4 -36 -11 -36 -16 0 -13 7 -12
30 0 11 6 21 6 24 1 6 -10 -92 -61 -117 -61 -18 0 -71 -84 -72 -115 -1 -11
-10 -39 -20 -62 l-19 -43 -59 0 -60 0 6 78 c15 195 91 377 226 541 l35 42 98
-98 c54 -54 98 -103 98 -109z m1301 164 c13 -17 29 -37 36 -43 6 -7 20 -27 31
-45 17 -27 18 -37 9 -57 -10 -22 -8 -28 13 -45 60 -48 70 -60 86 -112 17 -55
17 -56 -4 -79 -12 -13 -22 -30 -22 -38 0 -17 -56 -53 -69 -45 -5 4 -1 28 9 55
l18 50 -23 21 c-28 27 -62 19 -71 -15 -10 -39 -27 -46 -47 -19 -17 23 -17 24
3 24 11 0 20 5 20 10 0 6 -10 10 -23 10 -27 0 -103 73 -93 89 4 6 3 11 -3 11
-5 0 -13 -4 -16 -10 -10 -16 -18 -12 -54 31 l-34 41 99 99 c54 54 101 99 105
99 3 0 17 -14 30 -32z m-221 -281 c0 -16 -5 -18 -26 -13 -23 6 -26 4 -21 -13
8 -31 -10 -35 -29 -6 -17 26 -13 67 8 93 9 10 17 7 40 -14 15 -15 28 -36 28
-47z m414 -176 c-17 -57 -13 -77 7 -40 12 23 12 23 20 4 4 -11 8 -44 8 -72 l1
-53 -125 0 c-69 0 -125 2 -125 5 0 20 47 65 68 65 24 0 24 1 8 19 -17 18 -17
20 1 29 10 5 32 12 48 16 32 8 70 45 81 78 3 12 10 16 15 11 5 -5 3 -30 -7
-62z m-1671 -60 c4 -4 4 -28 1 -54 -6 -45 -8 -47 -39 -47 -58 0 -85 82 -36
110 16 9 59 4 74 -9z m-683 -206 c0 -53 26 -210 45 -277 13 -46 10 -58 -10
-39 -6 5 -27 12 -49 15 -33 6 -38 5 -33 -8 5 -12 0 -16 -18 -16 -19 0 -25 5
-25 21 0 18 -4 20 -27 14 -63 -15 -75 -84 -32 -182 48 -108 60 -132 69 -138
15 -9 12 1 -10 45 -21 41 -27 105 -10 115 5 3 21 -12 35 -35 27 -43 40 -52 32
-20 -5 18 -4 19 16 5 12 -8 34 -15 49 -15 21 0 28 -5 28 -20 0 -11 11 -27 25
-36 13 -8 36 -36 50 -60 25 -43 55 -59 55 -29 0 26 14 17 42 -28 27 -42 115
-155 143 -184 8 -8 15 -18 15 -21 0 -4 -44 -52 -99 -106 l-99 -98 -66 77
c-245 288 -378 608 -411 993 l-6 72 145 0 146 0 0 -45z m342 4 c2 -27 -1 -43
-10 -48 -7 -4 -19 -17 -25 -28 -7 -11 -27 -40 -45 -64 -18 -23 -30 -49 -27
-57 3 -8 3 -36 -1 -62 -5 -41 -10 -48 -38 -58 -73 -27 -80 -22 -105 80 -18 72
-40 216 -41 271 0 4 65 7 144 7 l144 0 4 -41z m137 29 c0 -7 -4 -22 -9 -33 -5
-13 -3 -26 7 -37 13 -14 12 -19 -4 -37 -9 -12 -27 -21 -39 -21 -17 0 -23 8
-28 38 -3 20 -6 52 -6 70 0 31 2 32 40 32 26 0 40 -4 39 -12z m147 -18 c0 -14
-3 -35 -8 -48 -4 -13 -3 -32 4 -48 10 -20 9 -27 -2 -34 -11 -7 -12 -14 -2 -35
17 -37 31 -23 25 24 -8 60 6 171 22 171 15 0 25 -22 25 -53 0 -82 69 -248 144
-346 l44 -58 -99 -99 -99 -98 -29 28 c-24 23 -30 39 -34 85 -7 74 -26 178 -39
216 -5 17 -13 48 -17 70 -9 46 -37 104 -54 111 -7 2 -13 27 -14 58 -2 50 0 54
30 68 18 9 48 15 67 14 30 -1 35 -5 36 -26z m1761 -51 c-14 -176 -94 -361
-225 -517 -53 -63 -69 -58 -69 22 0 76 -10 86 -44 45 -24 -29 -29 -31 -34 -17
-4 11 2 33 14 54 12 20 20 41 19 47 -1 7 1 23 5 37 11 42 -6 85 -31 83 -12 -2
-22 2 -22 7 0 6 4 10 8 10 5 0 17 17 26 38 9 20 32 47 51 59 23 15 32 28 29
38 -5 13 -3 14 17 5 19 -8 38 -6 84 8 51 17 60 23 57 41 -2 16 2 21 17 21 21
0 27 11 14 23 -3 4 -12 2 -19 -4 -22 -18 -61 -2 -83 35 -12 18 -21 36 -21 40
0 3 48 6 106 6 l107 0 -6 -81z m349 9 c-10 -103 -44 -266 -73 -343 -55 -144
-162 -323 -257 -430 -54 -60 -70 -53 -72 29 -2 63 -22 123 -43 131 -19 7 -31
-12 -31 -52 0 -17 -4 -34 -8 -37 -5 -3 -28 15 -52 39 l-43 44 49 58 c60 69
126 171 152 233 52 123 92 282 92 368 l0 32 146 0 146 0 -6 -72z m344 45 c0
-59 -21 -212 -41 -300 -63 -283 -195 -535 -398 -763 l-40 -45 -99 99 -100 99
62 76 c111 134 179 247 237 394 46 115 89 314 89 415 l0 52 145 0 145 0 0 -27z
m-2283 -50 c5 3 24 -3 41 -14 18 -10 39 -19 47 -19 8 0 20 -12 27 -27 18 -36
38 -41 38 -9 0 34 15 41 40 16 24 -24 26 -40 5 -40 -17 0 -20 -26 -4 -35 14
-9 49 29 58 61 6 25 7 24 40 -21 l34 -47 -102 -102 -101 -101 -35 40 c-64 75
-135 240 -135 315 l0 25 19 -24 c10 -13 23 -21 28 -18z m1098 -453 c10 -11 24
-20 30 -20 7 0 18 -7 26 -16 12 -14 8 -15 -32 -11 -38 4 -56 10 -98 34 -2 2 2
9 9 18 17 21 43 19 65 -5z m393 -433 c-54 -47 -141 -112 -182 -137 -37 -22
-38 -22 -27 -2 6 11 11 32 11 45 0 14 7 30 15 37 19 16 19 34 1 49 -13 11 -10
20 15 63 25 43 29 56 20 75 -6 13 -19 23 -30 23 -33 0 -43 31 -18 58 l21 23
103 -103 104 -103 -33 -28z m-1847 136 c33 -20 35 -26 14 -47 -19 -18 -34 -13
-58 20 -31 42 -7 57 44 27z"/>
<path d="M3307 3163 c-23 -6 -39 -47 -31 -79 5 -18 1 -29 -12 -39 -28 -20 -9
-30 21 -11 26 17 33 40 15 51 -15 9 -12 45 3 45 7 0 18 -5 25 -12 9 -9 12 -5
12 20 0 18 -3 31 -7 31 -5 -1 -16 -3 -26 -6z"/>
<path d="M1140 1829 c0 -6 9 -22 20 -36 24 -31 26 -23 5 17 -16 31 -25 38 -25
19z"/>
<path d="M1160 4207 c-42 -18 -103 -47 -135 -66 -77 -43 -238 -206 -288 -291
-36 -63 -88 -185 -103 -245 l-7 -29 49 41 c27 23 82 64 123 92 147 99 222 178
286 301 40 76 82 137 128 188 22 23 36 42 31 42 -5 -1 -43 -15 -84 -33z"/>
<path d="M3927 4183 c58 -70 79 -101 117 -173 63 -120 148 -209 301 -313 39
-27 89 -64 112 -84 l43 -35 -16 53 c-69 234 -227 434 -425 537 -61 31 -160 72
-176 72 -3 0 17 -26 44 -57z"/>
<path d="M2787 4129 c-10 -6 -25 -8 -32 -5 -8 3 -17 1 -20 -4 -8 -13 162 -16
175 -4 20 21 -90 32 -123 13z"/>
<path d="M2722 3954 l3 -99 45 -5 c103 -12 226 -104 249 -186 43 -153 -49
-271 -264 -338 -27 -8 -106 -29 -175 -46 -295 -74 -417 -140 -487 -267 -7 -12
-20 -54 -29 -94 -14 -60 -14 -81 -4 -133 22 -116 67 -184 163 -244 47 -30 206
-98 210 -91 1 2 1 50 -1 106 l-3 102 -40 22 c-98 56 -127 183 -60 263 42 49
143 91 346 140 310 77 427 135 516 256 81 111 96 291 35 421 -68 143 -256 263
-445 285 l-62 7 3 -99z"/>
<path d="M2295 3984 c-55 -24 -108 -43 -118 -44 -10 0 -44 -13 -75 -29 -60
-30 -169 -136 -195 -189 -17 -32 -64 -176 -72 -215 -3 -15 -24 -46 -47 -69
-23 -23 -33 -38 -24 -35 15 6 17 3 13 -15 -5 -22 -5 -22 11 2 35 51 75 90 93
90 66 0 282 132 388 239 39 39 86 77 106 85 35 15 35 16 34 73 0 32 -4 79 -7
104 l-7 47 -100 -44z m-195 -217 c0 -7 -12 -25 -27 -39 -29 -27 -73 -46 -73
-31 0 12 30 56 48 71 21 16 52 16 52 -1z"/>
<path d="M591 3888 c-114 -115 -188 -284 -198 -456 -3 -51 0 -166 7 -257 l14
-163 21 41 c66 128 145 214 315 342 75 56 160 129 188 160 49 55 111 161 127
215 7 24 6 24 -26 -6 -19 -18 -65 -51 -104 -74 -213 -129 -288 -190 -377 -307
-26 -35 -48 -61 -48 -58 0 3 6 38 14 78 8 40 19 110 26 157 25 189 50 290 90
357 10 18 18 33 16 33 -2 0 -31 -28 -65 -62z"/>
<path d="M4494 3905 c41 -84 61 -166 86 -355 7 -47 18 -116 25 -155 8 -38 13
-71 11 -72 -1 -2 -20 22 -41 52 -60 87 -170 183 -316 274 -74 46 -149 97 -168
115 -33 30 -33 30 -26 6 16 -56 90 -180 136 -228 27 -28 102 -91 166 -139 151
-112 235 -198 299 -306 l51 -86 9 127 c5 70 9 181 8 247 -2 209 -59 357 -192
494 l-73 76 25 -50z"/>
<path d="M3350 3882 c0 -12 61 -55 67 -48 4 3 1 17 -5 31 -8 17 -20 25 -37 25
-14 0 -25 -4 -25 -8z"/>
<path d="M2720 3590 c0 -25 4 -30 24 -30 14 0 62 -12 106 -26 88 -27 110 -26
110 5 0 17 -15 25 -82 45 -46 13 -100 27 -120 31 -37 6 -38 5 -38 -25z"/>
<path d="M282 3467 c-83 -137 -118 -275 -109 -422 7 -112 30 -181 118 -360 38
-78 69 -146 69 -153 0 -27 18 -10 29 28 21 70 70 150 192 312 118 157 194 291
238 421 l20 58 -81 -73 c-157 -140 -201 -183 -243 -243 -50 -70 -125 -219
-125 -249 0 -12 -4 -27 -9 -34 -5 -8 -11 20 -14 70 -4 46 -14 119 -22 163 -44
229 -56 391 -34 484 5 24 8 45 6 47 -2 2 -17 -20 -35 -49z"/>
<path d="M4817 3475 c14 -71 7 -255 -16 -385 -34 -192 -41 -241 -41 -292 0
-56 -15 -64 -23 -12 -9 52 -79 191 -133 263 -25 34 -76 87 -112 119 -37 31
-98 86 -136 122 -38 36 -66 56 -62 45 5 -11 17 -45 27 -75 47 -132 114 -245
250 -420 85 -109 135 -193 164 -271 20 -56 23 -60 30 -38 4 13 38 87 75 164
81 167 97 214 112 317 12 86 2 196 -27 284 -21 62 -70 162 -96 194 l-20 25 8
-40z"/>
<path d="M1718 3393 c7 -3 16 -2 19 1 4 3 -2 6 -13 5 -11 0 -14 -3 -6 -6z"/>
<path d="M1730 3370 c0 -5 5 -10 10 -10 6 0 10 5 10 10 0 6 -4 10 -10 10 -5 0
-10 -4 -10 -10z"/>
<path d="M2545 2986 c-37 -13 -60 -27 -60 -36 1 -107 17 -796 20 -798 1 -1 27
5 58 15 l55 17 6 100 c3 56 8 242 11 414 6 356 15 326 -90 288z"/>
<path d="M2375 2898 c-36 -42 -30 -97 14 -142 32 -31 57 -30 28 2 -21 23 -21
36 -2 52 10 8 15 31 15 66 0 64 -15 70 -55 22z"/>
<path d="M91 2865 c-20 -90 -19 -275 3 -360 32 -125 80 -199 234 -367 43 -48
94 -110 112 -137 17 -28 33 -51 34 -51 0 0 2 35 4 78 3 98 18 151 98 338 35
83 73 186 83 230 19 75 40 265 28 254 -3 -3 -42 -57 -87 -120 -134 -187 -169
-274 -180 -445 -3 -55 -9 -93 -12 -85 -3 8 -16 47 -28 85 -12 39 -54 131 -93
205 -151 288 -169 325 -176 381 l-6 54 -14 -60z"/>
<path d="M5021 2894 c-2 -59 -41 -151 -130 -309 -77 -136 -119 -225 -152 -320
l-28 -80 -1 55 c-1 122 -29 240 -77 333 -9 18 -56 88 -104 155 l-89 124 0 -49
c1 -136 41 -289 120 -459 62 -132 81 -199 88 -304 l7 -95 32 52 c18 29 75 99
127 157 197 219 240 316 238 536 0 73 -7 148 -15 180 -12 45 -15 49 -16 24z"/>
<path d="M2690 2461 c0 -95 1 -99 23 -105 75 -18 103 -108 50 -158 -37 -35
-77 -53 -194 -93 -114 -38 -170 -69 -218 -119 -68 -71 -48 -189 43 -254 24
-18 47 -32 51 -32 4 0 6 35 4 78 -1 42 1 87 5 99 11 33 56 56 211 108 163 54
223 85 270 136 80 89 68 238 -27 329 -32 30 -182 110 -206 110 -8 0 -12 -30
-12 -99z"/>
<path d="M660 2318 c-7 -29 -28 -102 -46 -163 -47 -152 -59 -250 -44 -367 6
-51 13 -104 16 -118 4 -14 -15 7 -43 50 -63 96 -131 178 -263 315 -126 131
-160 174 -201 251 l-31 59 7 -75 c27 -302 158 -503 450 -696 66 -43 144 -98
173 -122 59 -48 56 -51 31 48 -13 50 -11 286 3 356 6 32 11 122 11 199 0 112
-4 157 -21 224 -12 47 -24 86 -26 88 -2 2 -9 -20 -16 -49z"/>
<path d="M4441 2328 c-8 -24 -17 -56 -22 -73 -17 -53 -21 -228 -9 -330 19
-155 24 -330 11 -399 -7 -33 -14 -74 -17 -91 l-6 -30 38 36 c22 20 95 73 164
119 151 100 215 154 290 242 110 131 167 279 185 478 l5 65 -24 -49 c-35 -68
-95 -143 -216 -270 -151 -159 -271 -310 -293 -370 -15 -39 -16 -7 -2 60 30
142 15 317 -41 469 -8 22 -22 73 -32 113 l-19 73 -12 -43z"/>
<path d="M2690 2260 c0 -38 2 -40 20 -30 22 12 26 40 8 58 -21 21 -28 13 -28
-28z"/>
<path d="M2552 1880 l-43 -19 6 -373 c6 -396 9 -454 27 -493 15 -32 24 -31 42
3 11 22 16 92 20 308 4 153 9 350 12 437 5 175 8 170 -64 137z"/>
<path d="M802 1660 c-3 -229 6 -299 52 -393 l33 -67 -35 31 c-49 43 -148 105
-277 173 -60 33 -136 76 -167 97 -74 51 -172 141 -199 185 -26 43 -35 38 -19
-13 52 -171 153 -332 264 -420 109 -88 206 -129 445 -188 58 -14 128 -36 158
-50 l53 -24 -25 43 c-39 67 -64 150 -85 286 -23 141 -33 189 -62 275 -23 68
-77 179 -111 230 l-23 33 -2 -198z"/>
<path d="M4298 1822 c-83 -125 -136 -277 -169 -490 -22 -144 -45 -221 -84
-289 -28 -48 -27 -50 15 -28 16 8 100 33 187 56 276 71 380 123 495 248 91
100 178 263 203 381 l7 35 -27 -40 c-61 -92 -202 -201 -390 -300 -111 -60
-187 -107 -242 -151 -23 -19 -43 -34 -45 -34 -2 0 10 30 28 66 44 91 56 183
52 401 -2 101 -4 183 -4 183 -1 0 -13 -17 -26 -38z"/>
<path d="M2670 1645 c0 -44 4 -57 18 -62 57 -20 162 -127 175 -178 2 -11 5 1
6 26 2 90 -42 172 -127 234 -65 48 -72 46 -72 -20z"/>
<path d="M1094 1385 c3 -11 9 -38 15 -60 6 -22 17 -76 26 -120 27 -129 110
-284 194 -359 38 -34 22 -34 -56 0 -86 37 -188 63 -338 89 -177 30 -356 94
-412 147 -13 12 -26 18 -29 15 -11 -10 129 -187 181 -230 176 -147 332 -189
681 -185 l200 3 -38 76 c-21 42 -38 81 -38 87 0 26 -76 183 -126 260 -57 87
-270 314 -260 277z"/>
<path d="M3942 1308 c-146 -147 -238 -289 -287 -440 -20 -60 -61 -146 -80
-168 -20 -23 439 -21 540 2 149 34 279 105 378 205 83 85 193 248 125 186 -68
-62 -217 -119 -398 -152 -174 -32 -290 -61 -340 -83 -25 -11 -61 -27 -80 -35
l-34 -15 47 53 c104 117 153 215 187 378 11 53 24 111 29 129 5 18 8 32 7 32
-2 0 -44 -42 -94 -92z"/>
<path d="M1950 703 c-122 -18 -231 -41 -380 -77 -239 -59 -281 -66 -394 -66
-95 0 -207 20 -233 42 -7 6 -13 6 -13 2 0 -10 101 -78 157 -107 196 -102 522
-117 801 -38 37 11 122 35 188 55 118 35 301 70 332 64 8 -2 -18 -23 -59 -47
-41 -24 -101 -65 -134 -90 -71 -54 -195 -170 -195 -182 0 -8 63 -29 90 -29 8
0 39 33 69 73 70 94 146 158 251 210 115 57 155 57 270 0 99 -50 192 -129 256
-219 25 -35 53 -64 61 -64 25 0 93 22 93 31 0 4 -37 42 -82 84 -68 62 -186
149 -304 222 -18 11 -17 12 6 12 48 1 206 -31 325 -65 229 -67 254 -74 340
-89 50 -8 147 -15 226 -15 180 0 299 24 420 86 45 22 149 92 149 99 0 1 -30
-6 -67 -16 -138 -39 -266 -26 -623 59 -254 61 -297 67 -505 67 -194 0 -232 -5
-363 -47 l-63 -20 -92 26 c-51 15 -119 31 -152 36 -57 9 -321 12 -375 3z"/>
</g>
</svg>
